<?xml version="1.0" encoding="UTF-8" standalone="no"?>
<!DOCTYPE svg PUBLIC "-//W3C//DTD SVG 1.1//EN" "http://www.w3.org/Graphics/SVG/1.1/DTD/svg11.dtd">
<!-- Generated by graphviz version 2.40.1 (20161225.0304)
 -->
<!-- Title: fsm Pages: 1 -->
<svg width="242pt" height="133pt" viewBox="0.00 0.00 241.58 132.80" xmlns="http://www.w3.org/2000/svg" xmlns:xlink="http://www.w3.org/1999/xlink">
<g id="graph0" class="graph" transform="scale(1 1) rotate(0) translate(4 128.8)">
<title>fsm</title>
<polygon fill="#ffffff" stroke="transparent" points="-4,4 -4,-128.8 237.5775,-128.8 237.5775,4 -4,4"/>
<!-- Waiting -->
<g id="node1" class="node">
<title>Waiting</title>
<ellipse fill="none" stroke="#000000" cx="92.8173" cy="-106.8" rx="42.2932" ry="18"/>
<text text-anchor="middle" x="92.8173" y="-102.6" font-family="Times,serif" font-size="14.00" fill="#000000">Waiting</text>
</g>
<!-- Display Temperature -->
<g id="node2" class="node">
<title>Display Temperature</title>
<ellipse fill="none" stroke="#000000" cx="92.8173" cy="-18" rx="92.635" ry="18"/>
<text text-anchor="middle" x="92.8173" y="-13.8" font-family="Times,serif" font-size="14.00" fill="#000000">Display Temperature</text>
</g>
<!-- Waiting&#45;&gt;Display Temperature -->
<g id="edge1" class="edge">
<title>Waiting-&gt;Display Temperature</title>
<path fill="none" stroke="#000000" d="M55.6821,-97.9126C41.5415,-92.525 26.8479,-84.0341 18.5563,-70.8 10.2014,-57.4648 19.5526,-46.5207 34.111,-38.1229"/>
<polygon fill="#000000" stroke="#000000" points="35.8843,-41.1471 43.19,-33.4739 32.6938,-34.9165 35.8843,-41.1471"/>
<text text-anchor="middle" x="82.9478" y="-58.2" font-family="Times,serif" font-size="14.00" fill="#000000">receive_temperature    </text>
</g>
<!-- Display Temperature&#45;&gt;Waiting -->
<g id="edge2" class="edge">
<title>Display Temperature-&gt;Waiting</title>
<path fill="none" stroke="#000000" d="M128.2754,-34.8937C142.649,-44.2513 154.3034,-56.812 146.8173,-70.8 143.0791,-77.7849 137.3207,-83.6487 130.9339,-88.4802"/>
<polygon fill="#000000" stroke="#000000" points="128.9727,-85.5812 122.6126,-94.0547 132.8687,-91.3968 128.9727,-85.5812"/>
<text text-anchor="middle" x="191.1974" y="-58.2" font-family="Times,serif" font-size="14.00" fill="#000000">update_display</text>
</g>
</g>
</svg>