<?xml version="1.0" encoding="UTF-8" standalone="no"?>
<!DOCTYPE svg PUBLIC "-//W3C//DTD SVG 1.1//EN" "http://www.w3.org/Graphics/SVG/1.1/DTD/svg11.dtd">
<!-- Generated by graphviz version 2.40.1 (20161225.0304)
 -->
<!-- Title: fsm Pages: 1 -->
<svg width="192pt" height="133pt" viewBox="0.00 0.00 191.51 132.80" xmlns="http://www.w3.org/2000/svg" xmlns:xlink="http://www.w3.org/1999/xlink">
<g id="graph0" class="graph" transform="scale(1 1) rotate(0) translate(4 128.8)">
<title>fsm</title>
<polygon fill="#ffffff" stroke="transparent" points="-4,4 -4,-128.8 187.512,-128.8 187.512,4 -4,4"/>
<!-- Get Temperature -->
<g id="node1" class="node">
<title>Get Temperature</title>
<ellipse fill="none" stroke="#000000" cx="91.756" cy="-106.8" rx="76.9429" ry="18"/>
<text text-anchor="middle" x="91.756" y="-102.6" font-family="Times,serif" font-size="14.00" fill="#000000">Get Temperature</text>
</g>
<!-- Publish Temperature -->
<g id="node2" class="node">
<title>Publish Temperature</title>
<ellipse fill="none" stroke="#000000" cx="91.756" cy="-18" rx="91.5127" ry="18"/>
<text text-anchor="middle" x="91.756" y="-13.8" font-family="Times,serif" font-size="14.00" fill="#000000">Publish Temperature</text>
</g>
<!-- Get Temperature&#45;&gt;Publish Temperature -->
<g id="edge1" class="edge">
<title>Get Temperature-&gt;Publish Temperature</title>
<path fill="none" stroke="#000000" d="M56.4318,-90.6417C48.8563,-85.4342 41.8358,-78.8678 37.507,-70.8 31.4068,-59.4307 37.9631,-49.0165 48.3659,-40.4969"/>
<polygon fill="#000000" stroke="#000000" points="50.4262,-43.3263 56.4946,-34.6416 46.3348,-37.6465 50.4262,-43.3263"/>
<text text-anchor="middle" x="81.8805" y="-58.2" font-family="Times,serif" font-size="14.00" fill="#000000">update_queue   </text>
</g>
<!-- Publish Temperature&#45;&gt;Get Temperature -->
<g id="edge2" class="edge">
<title>Publish Temperature-&gt;Get Temperature</title>
<path fill="none" stroke="#000000" d="M113.5633,-35.8281C118.5103,-41.1069 123.0881,-47.2896 125.756,-54 128.5146,-60.9384 128.5146,-63.8616 125.756,-70.8 124.2623,-74.5571 122.1698,-78.1488 119.749,-81.5091"/>
<polygon fill="#000000" stroke="#000000" points="116.9282,-79.4267 113.2094,-89.3474 122.3032,-83.9111 116.9282,-79.4267"/>
<text text-anchor="middle" x="154.9762" y="-58.2" font-family="Times,serif" font-size="14.00" fill="#000000">published</text>
</g>
</g>
</svg>